<mxfile host="65bd71144e">
    <diagram id="Sk36w1yPGO5rhA4B0xN7" name="Page-1">
        <mxGraphModel dx="926" dy="583" grid="1" gridSize="10" guides="1" tooltips="1" connect="1" arrows="1" fold="1" page="1" pageScale="1" pageWidth="1169" pageHeight="827" math="0" shadow="0">
            <root>
                <mxCell id="0"/>
                <mxCell id="1" parent="0"/>
                <mxCell id="3" value="" style="rounded=0;whiteSpace=wrap;html=1;" vertex="1" parent="1">
                    <mxGeometry x="40" y="40" width="120" height="60" as="geometry"/>
                </mxCell>
                <mxCell id="4" value="" style="rounded=1;whiteSpace=wrap;html=1;" vertex="1" parent="1">
                    <mxGeometry x="40" y="120" width="120" height="60" as="geometry"/>
                </mxCell>
                <mxCell id="EIdmhRiufcmdx8XjM1u1-19" value="" style="ellipse;whiteSpace=wrap;html=1;" vertex="1" parent="1">
                    <mxGeometry x="40" y="210" width="120" height="80" as="geometry"/>
                </mxCell>
                <mxCell id="EIdmhRiufcmdx8XjM1u1-20" value="" style="whiteSpace=wrap;html=1;aspect=fixed;" vertex="1" parent="1">
                    <mxGeometry x="40" y="320" width="80" height="80" as="geometry"/>
                </mxCell>
                <mxCell id="EIdmhRiufcmdx8XjM1u1-21" value="" style="ellipse;whiteSpace=wrap;html=1;aspect=fixed;" vertex="1" parent="1">
                    <mxGeometry x="40" y="440" width="80" height="80" as="geometry"/>
                </mxCell>
                <mxCell id="EIdmhRiufcmdx8XjM1u1-22" value="" style="rhombus;whiteSpace=wrap;html=1;" vertex="1" parent="1">
                    <mxGeometry x="40" y="560" width="80" height="80" as="geometry"/>
                </mxCell>
                <mxCell id="EIdmhRiufcmdx8XjM1u1-23" value="" style="shape=parallelogram;perimeter=parallelogramPerimeter;whiteSpace=wrap;html=1;fixedSize=1;" vertex="1" parent="1">
                    <mxGeometry x="40" y="670" width="120" height="60" as="geometry"/>
                </mxCell>
                <mxCell id="EIdmhRiufcmdx8XjM1u1-24" value="" style="shape=hexagon;perimeter=hexagonPerimeter2;whiteSpace=wrap;html=1;fixedSize=1;" vertex="1" parent="1">
                    <mxGeometry x="240" y="40" width="120" height="80" as="geometry"/>
                </mxCell>
                <mxCell id="EIdmhRiufcmdx8XjM1u1-25" value="" style="triangle;whiteSpace=wrap;html=1;" vertex="1" parent="1">
                    <mxGeometry x="240" y="150" width="60" height="80" as="geometry"/>
                </mxCell>
                <mxCell id="EIdmhRiufcmdx8XjM1u1-26" value="" style="shape=cylinder3;whiteSpace=wrap;html=1;boundedLbl=1;backgroundOutline=1;size=15;" vertex="1" parent="1">
                    <mxGeometry x="240" y="280" width="60" height="80" as="geometry"/>
                </mxCell>
                <mxCell id="EIdmhRiufcmdx8XjM1u1-27" value="" style="ellipse;shape=cloud;whiteSpace=wrap;html=1;" vertex="1" parent="1">
                    <mxGeometry x="240" y="420" width="120" height="80" as="geometry"/>
                </mxCell>
                <mxCell id="EIdmhRiufcmdx8XjM1u1-28" value="" style="shape=document;whiteSpace=wrap;html=1;boundedLbl=1;" vertex="1" parent="1">
                    <mxGeometry x="240" y="540" width="120" height="80" as="geometry"/>
                </mxCell>
                <mxCell id="EIdmhRiufcmdx8XjM1u1-29" value="" style="shape=internalStorage;whiteSpace=wrap;html=1;backgroundOutline=1;" vertex="1" parent="1">
                    <mxGeometry x="240" y="670" width="80" height="80" as="geometry"/>
                </mxCell>
                <mxCell id="EIdmhRiufcmdx8XjM1u1-30" value="" style="shape=cube;whiteSpace=wrap;html=1;boundedLbl=1;backgroundOutline=1;darkOpacity=0.05;darkOpacity2=0.1;" vertex="1" parent="1">
                    <mxGeometry x="430" y="140" width="120" height="80" as="geometry"/>
                </mxCell>
                <mxCell id="EIdmhRiufcmdx8XjM1u1-31" value="" style="shape=process;whiteSpace=wrap;html=1;backgroundOutline=1;" vertex="1" parent="1">
                    <mxGeometry x="430" y="40" width="120" height="60" as="geometry"/>
                </mxCell>
                <mxCell id="EIdmhRiufcmdx8XjM1u1-32" value="" style="shape=step;perimeter=stepPerimeter;whiteSpace=wrap;html=1;fixedSize=1;" vertex="1" parent="1">
                    <mxGeometry x="430" y="270" width="120" height="80" as="geometry"/>
                </mxCell>
                <mxCell id="EIdmhRiufcmdx8XjM1u1-33" value="" style="shape=trapezoid;perimeter=trapezoidPerimeter;whiteSpace=wrap;html=1;fixedSize=1;" vertex="1" parent="1">
                    <mxGeometry x="430" y="390" width="120" height="60" as="geometry"/>
                </mxCell>
                <mxCell id="EIdmhRiufcmdx8XjM1u1-34" value="" style="shape=tape;whiteSpace=wrap;html=1;" vertex="1" parent="1">
                    <mxGeometry x="430" y="490" width="120" height="100" as="geometry"/>
                </mxCell>
                <mxCell id="EIdmhRiufcmdx8XjM1u1-35" value="" style="shape=note;whiteSpace=wrap;html=1;backgroundOutline=1;darkOpacity=0.05;" vertex="1" parent="1">
                    <mxGeometry x="430" y="620" width="80" height="100" as="geometry"/>
                </mxCell>
                <mxCell id="EIdmhRiufcmdx8XjM1u1-36" value="" style="shape=card;whiteSpace=wrap;html=1;" vertex="1" parent="1">
                    <mxGeometry x="610" y="40" width="80" height="100" as="geometry"/>
                </mxCell>
                <mxCell id="EIdmhRiufcmdx8XjM1u1-37" value="" style="shape=callout;whiteSpace=wrap;html=1;perimeter=calloutPerimeter;" vertex="1" parent="1">
                    <mxGeometry x="610" y="180" width="120" height="80" as="geometry"/>
                </mxCell>
                <mxCell id="EIdmhRiufcmdx8XjM1u1-38" value="Actor" style="shape=umlActor;verticalLabelPosition=bottom;verticalAlign=top;html=1;outlineConnect=0;" vertex="1" parent="1">
                    <mxGeometry x="610" y="300" width="30" height="60" as="geometry"/>
                </mxCell>
                <mxCell id="EIdmhRiufcmdx8XjM1u1-39" value="Vertical Container" style="swimlane;" vertex="1" parent="1">
                    <mxGeometry x="600" y="414" width="200" height="200" as="geometry"/>
                </mxCell>
                <mxCell id="EIdmhRiufcmdx8XjM1u1-40" value="Horizontal Container" style="swimlane;horizontal=0;" vertex="1" parent="1">
                    <mxGeometry x="600" y="640" width="200" height="200" as="geometry"/>
                </mxCell>
                <mxCell id="EIdmhRiufcmdx8XjM1u1-41" value="List" style="swimlane;fontStyle=0;childLayout=stackLayout;horizontal=1;startSize=30;horizontalStack=0;resizeParent=1;resizeParentMax=0;resizeLast=0;collapsible=1;marginBottom=0;" vertex="1" parent="1">
                    <mxGeometry x="30" y="850" width="140" height="120" as="geometry"/>
                </mxCell>
                <mxCell id="EIdmhRiufcmdx8XjM1u1-42" value="Item 1" style="text;strokeColor=none;fillColor=none;align=left;verticalAlign=middle;spacingLeft=4;spacingRight=4;overflow=hidden;points=[[0,0.5],[1,0.5]];portConstraint=eastwest;rotatable=0;" vertex="1" parent="EIdmhRiufcmdx8XjM1u1-41">
                    <mxGeometry y="30" width="140" height="30" as="geometry"/>
                </mxCell>
                <mxCell id="EIdmhRiufcmdx8XjM1u1-43" value="Item 2" style="text;strokeColor=none;fillColor=none;align=left;verticalAlign=middle;spacingLeft=4;spacingRight=4;overflow=hidden;points=[[0,0.5],[1,0.5]];portConstraint=eastwest;rotatable=0;" vertex="1" parent="EIdmhRiufcmdx8XjM1u1-41">
                    <mxGeometry y="60" width="140" height="30" as="geometry"/>
                </mxCell>
                <mxCell id="EIdmhRiufcmdx8XjM1u1-44" value="Item 3" style="text;strokeColor=none;fillColor=none;align=left;verticalAlign=middle;spacingLeft=4;spacingRight=4;overflow=hidden;points=[[0,0.5],[1,0.5]];portConstraint=eastwest;rotatable=0;" vertex="1" parent="EIdmhRiufcmdx8XjM1u1-41">
                    <mxGeometry y="90" width="140" height="30" as="geometry"/>
                </mxCell>
                <mxCell id="EIdmhRiufcmdx8XjM1u1-45" value="List Item" style="text;strokeColor=none;fillColor=none;align=left;verticalAlign=middle;spacingLeft=4;spacingRight=4;overflow=hidden;points=[[0,0.5],[1,0.5]];portConstraint=eastwest;rotatable=0;" vertex="1" parent="1">
                    <mxGeometry x="210" y="850" width="80" height="30" as="geometry"/>
                </mxCell>
                <mxCell id="EIdmhRiufcmdx8XjM1u1-46" value="" style="curved=1;endArrow=classic;html=1;" edge="1" parent="1">
                    <mxGeometry width="50" height="50" relative="1" as="geometry">
                        <mxPoint x="330" y="900" as="sourcePoint"/>
                        <mxPoint x="380" y="850" as="targetPoint"/>
                        <Array as="points">
                            <mxPoint x="380" y="900"/>
                            <mxPoint x="330" y="850"/>
                        </Array>
                    </mxGeometry>
                </mxCell>
                <mxCell id="EIdmhRiufcmdx8XjM1u1-47" value="" style="shape=flexArrow;endArrow=classic;startArrow=classic;html=1;" edge="1" parent="1">
                    <mxGeometry width="100" height="100" relative="1" as="geometry">
                        <mxPoint x="460" y="910" as="sourcePoint"/>
                        <mxPoint x="510" y="850" as="targetPoint"/>
                    </mxGeometry>
                </mxCell>
                <mxCell id="EIdmhRiufcmdx8XjM1u1-48" value="" style="shape=flexArrow;endArrow=classic;html=1;" edge="1" parent="1">
                    <mxGeometry width="50" height="50" relative="1" as="geometry">
                        <mxPoint x="560" y="900" as="sourcePoint"/>
                        <mxPoint x="610" y="850" as="targetPoint"/>
                    </mxGeometry>
                </mxCell>
                <mxCell id="EIdmhRiufcmdx8XjM1u1-49" value="" style="endArrow=none;dashed=1;html=1;" edge="1" parent="1">
                    <mxGeometry width="50" height="50" relative="1" as="geometry">
                        <mxPoint x="660" y="910" as="sourcePoint"/>
                        <mxPoint x="710" y="860" as="targetPoint"/>
                    </mxGeometry>
                </mxCell>
                <mxCell id="EIdmhRiufcmdx8XjM1u1-50" value="" style="endArrow=none;dashed=1;html=1;dashPattern=1 3;strokeWidth=2;" edge="1" parent="1">
                    <mxGeometry width="50" height="50" relative="1" as="geometry">
                        <mxPoint x="760" y="910" as="sourcePoint"/>
                        <mxPoint x="810" y="860" as="targetPoint"/>
                    </mxGeometry>
                </mxCell>
                <mxCell id="EIdmhRiufcmdx8XjM1u1-51" value="" style="endArrow=none;html=1;" edge="1" parent="1">
                    <mxGeometry width="50" height="50" relative="1" as="geometry">
                        <mxPoint x="220" y="970" as="sourcePoint"/>
                        <mxPoint x="270" y="920" as="targetPoint"/>
                    </mxGeometry>
                </mxCell>
                <mxCell id="EIdmhRiufcmdx8XjM1u1-52" value="" style="endArrow=classic;startArrow=classic;html=1;" edge="1" parent="1">
                    <mxGeometry width="50" height="50" relative="1" as="geometry">
                        <mxPoint x="320" y="970" as="sourcePoint"/>
                        <mxPoint x="370" y="920" as="targetPoint"/>
                    </mxGeometry>
                </mxCell>
                <mxCell id="EIdmhRiufcmdx8XjM1u1-53" value="" style="endArrow=classic;html=1;" edge="1" parent="1">
                    <mxGeometry width="50" height="50" relative="1" as="geometry">
                        <mxPoint x="420" y="970" as="sourcePoint"/>
                        <mxPoint x="470" y="920" as="targetPoint"/>
                    </mxGeometry>
                </mxCell>
                <mxCell id="EIdmhRiufcmdx8XjM1u1-54" value="" style="shape=link;html=1;" edge="1" parent="1">
                    <mxGeometry width="100" relative="1" as="geometry">
                        <mxPoint x="30" y="1030" as="sourcePoint"/>
                        <mxPoint x="130" y="1030" as="targetPoint"/>
                    </mxGeometry>
                </mxCell>
                <mxCell id="EIdmhRiufcmdx8XjM1u1-55" value="" style="endArrow=classic;html=1;" edge="1" parent="1">
                    <mxGeometry relative="1" as="geometry">
                        <mxPoint x="190" y="1030" as="sourcePoint"/>
                        <mxPoint x="290" y="1030" as="targetPoint"/>
                    </mxGeometry>
                </mxCell>
                <mxCell id="EIdmhRiufcmdx8XjM1u1-56" value="Label" style="edgeLabel;resizable=0;html=1;align=center;verticalAlign=middle;" connectable="0" vertex="1" parent="EIdmhRiufcmdx8XjM1u1-55">
                    <mxGeometry relative="1" as="geometry"/>
                </mxCell>
                <mxCell id="EIdmhRiufcmdx8XjM1u1-57" value="" style="endArrow=classic;html=1;" edge="1" parent="1">
                    <mxGeometry relative="1" as="geometry">
                        <mxPoint x="340" y="1030" as="sourcePoint"/>
                        <mxPoint x="500" y="1030" as="targetPoint"/>
                    </mxGeometry>
                </mxCell>
                <mxCell id="EIdmhRiufcmdx8XjM1u1-58" value="Label" style="edgeLabel;resizable=0;html=1;align=center;verticalAlign=middle;" connectable="0" vertex="1" parent="EIdmhRiufcmdx8XjM1u1-57">
                    <mxGeometry relative="1" as="geometry"/>
                </mxCell>
                <mxCell id="EIdmhRiufcmdx8XjM1u1-59" value="Source" style="edgeLabel;resizable=0;html=1;align=left;verticalAlign=bottom;" connectable="0" vertex="1" parent="EIdmhRiufcmdx8XjM1u1-57">
                    <mxGeometry x="-1" relative="1" as="geometry"/>
                </mxCell>
                <mxCell id="EIdmhRiufcmdx8XjM1u1-60" value="" style="endArrow=classic;html=1;" edge="1" parent="1">
                    <mxGeometry relative="1" as="geometry">
                        <mxPoint x="560" y="1030" as="sourcePoint"/>
                        <mxPoint x="720" y="1030" as="targetPoint"/>
                    </mxGeometry>
                </mxCell>
                <mxCell id="EIdmhRiufcmdx8XjM1u1-61" value="Label" style="edgeLabel;resizable=0;html=1;align=center;verticalAlign=middle;" connectable="0" vertex="1" parent="EIdmhRiufcmdx8XjM1u1-60">
                    <mxGeometry relative="1" as="geometry"/>
                </mxCell>
                <mxCell id="EIdmhRiufcmdx8XjM1u1-62" value="Source" style="edgeLabel;resizable=0;html=1;align=left;verticalAlign=bottom;" connectable="0" vertex="1" parent="EIdmhRiufcmdx8XjM1u1-60">
                    <mxGeometry x="-1" relative="1" as="geometry"/>
                </mxCell>
                <mxCell id="EIdmhRiufcmdx8XjM1u1-63" value="Target" style="edgeLabel;resizable=0;html=1;align=right;verticalAlign=bottom;" connectable="0" vertex="1" parent="EIdmhRiufcmdx8XjM1u1-60">
                    <mxGeometry x="1" relative="1" as="geometry"/>
                </mxCell>
                <mxCell id="EIdmhRiufcmdx8XjM1u1-64" value="" style="endArrow=classic;html=1;" edge="1" parent="1">
                    <mxGeometry relative="1" as="geometry">
                        <mxPoint x="570" y="1070" as="sourcePoint"/>
                        <mxPoint x="670" y="1070" as="targetPoint"/>
                    </mxGeometry>
                </mxCell>
                <mxCell id="EIdmhRiufcmdx8XjM1u1-65" value="" style="shape=message;html=1;outlineConnect=0;" vertex="1" parent="EIdmhRiufcmdx8XjM1u1-64">
                    <mxGeometry width="20" height="14" relative="1" as="geometry">
                        <mxPoint x="-10" y="-7" as="offset"/>
                    </mxGeometry>
                </mxCell>
            </root>
        </mxGraphModel>
    </diagram>
</mxfile>